<?xml version="1.0" encoding="UTF-8" standalone="no"?>
<!DOCTYPE svg PUBLIC "-//W3C//DTD SVG 1.1//EN" "http://www.w3.org/Graphics/SVG/1.1/DTD/svg11.dtd">
<svg width="100%" height="100%" viewBox="0 0 32 32" version="1.1" xmlns="http://www.w3.org/2000/svg" xmlns:xlink="http://www.w3.org/1999/xlink" xml:space="preserve" xmlns:serif="http://www.serif.com/" style="fill-rule:evenodd;clip-rule:evenodd;stroke-linejoin:round;stroke-miterlimit:2;">
    <path id="background" d="M32,3.2C32,1.434 30.566,0 28.8,0L3.2,0C1.434,0 0,1.434 0,3.2L0,28.8C0,30.566 1.434,32 3.2,32L28.8,32C30.566,32 32,30.566 32,28.8L32,3.2Z" style="fill:url(#_Linear1);"/>
    <clipPath id="_clip2">
        <path id="background1" serif:id="background" d="M32,3.2C32,1.434 30.566,0 28.8,0L3.2,0C1.434,0 0,1.434 0,3.2L0,28.8C0,30.566 1.434,32 3.2,32L28.8,32C30.566,32 32,30.566 32,28.8L32,3.2Z"/>
    </clipPath>
    <g clip-path="url(#_clip2)">
        <g transform="matrix(0.930102,0,0,0.930102,0.907842,0.833155)">
            <g id="back" transform="matrix(1,0,0,1,2.05138,1.61328)">
                <text x="2.739px" y="29px" style="font-family:'ProzaLibre-BoldItalic', 'Proza Libre', sans-serif;font-weight:700;font-style:italic;font-size:40px;fill:rgb(0,14,77);fill-opacity:0.35;">L</text>
            </g>
            <g id="front" transform="matrix(1,0,0,1,1.82481,0.980913)">
                <text x="3.026px" y="29px" style="font-family:'ProzaLibre-BoldItalic', 'Proza Libre', sans-serif;font-weight:700;font-style:italic;font-size:39px;fill:white;">L</text>
            </g>
        </g>
    </g>
    <defs>
        <linearGradient id="_Linear1" x1="0" y1="0" x2="1" y2="0" gradientUnits="userSpaceOnUse" gradientTransform="matrix(30,-30,30,30,1,31)"><stop offset="0" style="stop-color:rgb(238,120,172);stop-opacity:1"/><stop offset="1" style="stop-color:rgb(122,192,255);stop-opacity:1"/></linearGradient>
    </defs>
</svg>
